<?xml version="1.0" standalone="no"?>
<!DOCTYPE svg PUBLIC "-//W3C//DTD SVG 20010904//EN"
 "http://www.w3.org/TR/2001/REC-SVG-20010904/DTD/svg10.dtd">
<svg version="1.0" xmlns="http://www.w3.org/2000/svg"
 width="734.000000pt" height="667.000000pt" viewBox="0 0 734.000000 667.000000"
 preserveAspectRatio="xMidYMid meet">

<g transform="translate(0.000000,667.000000) scale(0.100000,-0.100000)"
fill="#000000" stroke="none">
<path d="M2231 4679 c-356 -40 -745 -193 -1111 -437 -155 -104 -193 -132 -187
-139 2 -2 43 6 91 17 97 23 248 28 318 10 24 -6 66 -20 95 -31 l51 -21 79 55
c246 171 527 300 767 354 110 24 275 22 361 -5 267 -82 356 -352 224 -680 -49
-123 -170 -292 -209 -292 -17 0 -20 19 -36 187 -8 92 -21 206 -27 253 l-12 85
-92 3 -91 3 -47 -83 c-184 -326 -715 -1310 -715 -1326 0 -14 109 -224 124
-240 6 -5 363 265 481 365 514 430 806 910 805 1322 -1 301 -160 505 -455 582
-94 24 -286 33 -414 18z"/>
<path d="M3716 4638 c-2 -7 -28 -122 -58 -255 l-54 -243 41 0 42 0 22 108 c13
59 38 172 57 250 19 79 34 146 34 148 0 11 -81 3 -84 -8z"/>
<path d="M3925 4638 c-2 -7 -24 -107 -49 -223 -25 -115 -50 -225 -55 -242
l-10 -33 149 0 148 0 11 30 10 30 -110 0 c-81 0 -109 3 -109 13 1 6 9 46 18
87 l18 75 99 0 99 1 7 27 7 27 -100 0 c-99 0 -100 0 -95 23 3 12 11 48 18 80
l12 57 103 0 c105 0 114 3 114 46 0 19 -278 21 -285 2z"/>
<path d="M4315 4638 c-2 -7 -22 -99 -45 -203 -22 -105 -47 -214 -54 -243 l-14
-52 148 0 148 0 11 30 10 30 -110 0 c-60 0 -109 3 -109 8 0 4 9 43 19 87 l17
80 99 0 99 1 7 27 7 27 -100 0 c-99 0 -100 0 -94 23 3 12 11 48 17 80 l12 57
102 0 c106 0 115 3 115 46 0 19 -278 21 -285 2z"/>
<path d="M4705 4638 c-2 -7 -20 -89 -40 -183 -19 -93 -44 -203 -54 -242 l-19
-73 148 0 148 0 11 30 10 30 -110 0 c-60 0 -109 3 -109 8 0 4 9 43 19 87 l17
80 99 0 99 1 7 27 7 27 -100 0 c-99 0 -100 0 -94 23 3 12 11 48 17 80 l12 57
102 0 c106 0 115 3 115 46 0 19 -278 21 -285 2z"/>
<path d="M1022 4040 c-85 -23 -213 -84 -296 -143 -104 -74 -84 -87 48 -33 133
55 193 70 288 69 78 0 94 -3 153 -32 70 -35 102 -72 125 -145 48 -150 -96
-405 -315 -561 -67 -48 -201 -115 -273 -136 l-43 -12 3 -66 3 -66 130 -103
c72 -57 266 -215 433 -350 167 -136 318 -257 335 -270 26 -18 45 -22 103 -22
81 0 104 6 104 26 0 8 -62 121 -139 252 -76 130 -179 308 -229 394 l-91 158
47 31 c234 158 326 450 231 737 -43 128 -148 232 -278 272 -84 27 -237 26
-339 0z"/>
<path d="M4474 4037 c-51 -9 -52 -10 -58 -51 -7 -41 -101 -455 -112 -488 -5
-16 4 -18 103 -18 134 0 173 11 229 62 144 133 80 369 -85 314 -25 -8 -46 -14
-47 -13 -1 1 9 43 22 92 13 50 24 96 24 103 0 13 -4 13 -76 -1z m107 -278 c18
-35 6 -113 -25 -153 -25 -34 -98 -68 -112 -53 -11 11 37 201 54 215 26 20 70
15 83 -9z"/>
<path d="M5610 4028 c-30 -5 -57 -12 -61 -16 -3 -4 -11 -26 -17 -49 -10 -42
-9 -43 17 -43 14 0 43 3 63 6 34 6 37 10 48 56 7 27 11 50 9 52 -2 1 -29 -1
-59 -6z"/>
<path d="M3540 3918 c-12 -65 -87 -390 -96 -420 -5 -16 2 -18 59 -18 l65 0 17
88 c9 49 20 95 25 102 17 28 39 -2 70 -94 l32 -96 64 0 c35 0 64 4 64 8 0 5
-18 53 -40 107 -22 54 -39 99 -38 99 33 11 88 51 106 76 26 39 30 116 8 159
-23 43 -54 51 -195 51 l-128 0 -13 -62z m214 -34 c25 -24 19 -62 -13 -95 -23
-23 -39 -29 -70 -29 -45 0 -45 0 -32 50 5 19 12 47 15 63 6 24 11 27 45 27 23
0 46 -7 55 -16z"/>
<path d="M5325 3967 c-47 -13 -51 -18 -59 -68 -5 -31 -10 -38 -33 -41 -20 -2
-29 -11 -39 -40 l-13 -38 30 0 c24 0 29 -4 25 -17 -21 -71 -46 -186 -46 -211
0 -46 28 -73 82 -79 64 -7 95 2 102 31 3 13 9 31 12 40 5 13 1 15 -23 10 -20
-4 -33 -1 -43 10 -11 14 -9 32 11 114 l24 97 37 3 c28 2 37 8 42 27 3 13 9 30
12 39 5 13 -1 16 -34 16 l-40 0 14 53 c7 28 14 55 14 60 0 9 -25 7 -75 -6z"/>
<path d="M6673 3954 c-48 -24 -65 -57 -61 -117 3 -29 8 -59 12 -68 5 -12 -4
-23 -38 -43 -81 -47 -110 -112 -82 -180 30 -72 132 -98 223 -56 37 16 44 17
51 4 6 -11 24 -14 75 -12 l67 3 -30 45 -30 45 47 47 47 47 -20 36 c-10 20 -22
38 -25 40 -3 2 -22 -18 -42 -45 -21 -28 -41 -50 -45 -50 -4 0 -18 19 -31 42
-23 41 -23 42 -5 53 10 5 36 26 56 46 41 39 48 75 27 123 -24 51 -129 73 -196
40z m115 -85 c2 -20 -4 -32 -26 -48 l-29 -20 -12 25 c-21 47 -5 77 39 72 19
-2 26 -10 28 -29z m-82 -247 l25 -42 -36 -15 c-26 -11 -41 -13 -55 -5 -38 20
-34 75 8 99 24 15 29 11 58 -37z"/>
<path d="M4076 3859 c-101 -24 -156 -96 -164 -213 -6 -92 12 -130 71 -157 86
-39 204 -16 259 49 55 66 72 205 32 259 -42 56 -121 81 -198 62z m89 -89 c39
-43 -9 -204 -67 -224 -41 -14 -68 14 -68 72 0 125 79 214 135 152z"/>
<path d="M4910 3857 c-52 -15 -81 -33 -110 -70 -48 -61 -65 -178 -34 -243 42
-88 218 -100 302 -21 45 41 65 96 66 174 1 58 -3 77 -20 100 -43 58 -124 82
-204 60z m95 -84 c38 -38 -2 -191 -57 -222 -23 -13 -29 -13 -53 3 -26 17 -27
21 -23 80 5 62 37 140 60 149 26 11 57 6 73 -10z"/>
<path d="M5565 3856 l-60 -11 -9 -45 c-5 -25 -23 -107 -41 -183 l-32 -138 65
3 66 3 23 114 c12 63 31 147 41 188 10 41 16 75 13 77 -3 1 -33 -2 -66 -8z"/>
<path d="M5825 3861 c-109 -28 -169 -107 -170 -223 0 -52 4 -73 21 -94 36 -49
70 -67 131 -72 82 -5 108 7 121 59 6 24 10 45 8 46 -2 2 -16 -3 -32 -12 -55
-28 -97 -14 -120 41 -30 72 28 174 98 174 19 0 43 -7 54 -15 27 -20 31 -19 37
13 3 15 8 34 12 43 11 29 -97 56 -160 40z"/>
<path d="M6135 3861 c-70 -17 -115 -63 -115 -118 0 -50 14 -70 76 -105 64 -36
73 -51 49 -78 -25 -27 -74 -25 -118 5 l-36 24 -11 -41 c-7 -22 -8 -44 -3 -48
18 -16 79 -30 132 -30 106 1 171 51 171 133 0 44 -22 71 -85 105 -39 21 -50
33 -50 51 0 46 59 47 136 4 3 -2 11 13 17 34 13 44 10 47 -61 63 -53 11 -59
11 -102 1z"/>
<path d="M857 3814 c-196 -35 -364 -139 -513 -316 -223 -266 -344 -553 -344
-818 0 -507 493 -736 1195 -553 82 21 219 67 234 79 4 3 -64 65 -86 77 -7 5
-49 -1 -96 -12 -202 -50 -450 -65 -601 -37 -186 36 -309 123 -360 256 -21 52
-23 171 -6 245 19 80 113 263 184 356 77 102 238 267 356 366 88 74 284 215
339 245 20 11 29 22 25 32 -10 26 -83 68 -141 82 -70 16 -86 16 -186 -2z"/>
<path d="M6468 3371 c-26 -4 -50 -10 -53 -13 -9 -9 -27 -90 -21 -96 3 -2 31 0
62 4 50 8 59 12 64 34 20 74 20 80 8 79 -7 -1 -34 -5 -60 -8z"/>
<path d="M3521 3208 c-36 -68 -97 -183 -137 -255 l-72 -133 62 0 63 0 32 70
c32 68 34 70 69 70 20 0 54 -3 75 -6 l37 -7 0 -51 c0 -28 4 -57 9 -64 9 -16
127 -13 124 3 -1 6 -9 119 -19 253 l-18 242 -81 0 -80 0 -64 -122z m128 -73
l2 -95 -56 0 -55 0 47 95 c26 52 50 95 54 95 4 0 7 -43 8 -95z"/>
<path d="M4435 3311 l-60 -16 -8 -48 c-8 -43 -12 -47 -37 -47 -24 0 -29 -5
-38 -40 -10 -39 -9 -40 18 -40 l27 0 -23 -97 c-29 -120 -30 -157 -5 -182 24
-24 79 -36 125 -27 29 6 35 12 44 47 10 39 9 41 -10 35 -26 -6 -58 10 -58 29
0 7 9 54 21 104 l21 91 37 0 c35 0 38 2 48 40 l10 40 -39 0 c-33 0 -38 3 -34
18 15 52 27 104 24 107 -2 1 -30 -5 -63 -14z"/>
<path d="M6200 3311 c-53 -16 -55 -19 -66 -61 -9 -38 -15 -46 -37 -48 -17 -2
-28 -11 -32 -25 -4 -12 -9 -30 -11 -39 -4 -14 1 -18 20 -18 31 0 31 -4 6 -100
-42 -158 -23 -205 81 -205 65 0 74 6 84 54 7 32 6 33 -18 27 -17 -4 -31 -1
-40 9 -14 13 -14 22 -1 77 33 141 31 138 68 138 29 0 36 5 45 31 16 46 15 49
-24 49 -40 0 -39 -2 -20 70 8 30 15 56 15 58 0 4 -13 1 -70 -17z"/>
<path d="M4690 3199 c-51 -15 -97 -54 -122 -102 -18 -33 -23 -59 -23 -124 0
-77 2 -83 29 -112 53 -56 148 -66 233 -27 66 31 101 82 116 169 20 121 -32
194 -145 202 -29 3 -69 0 -88 -6z m110 -88 c22 -42 -1 -157 -40 -199 -23 -24
-69 -29 -88 -10 -28 28 -6 165 34 209 23 26 80 26 94 0z"/>
<path d="M5080 3197 c-47 -10 -55 -15 -58 -37 -2 -14 -19 -94 -38 -179 -19
-85 -34 -156 -34 -158 0 -2 27 -3 60 -3 54 0 60 2 65 23 2 12 16 74 30 137 14
63 29 118 33 121 18 18 59 20 72 4 14 -17 10 -45 -37 -262 -5 -22 -2 -23 55
-23 l61 0 11 58 c44 213 46 216 73 232 21 12 31 12 44 4 24 -15 21 -69 -10
-196 l-24 -98 63 0 c35 0 64 4 64 8 0 5 13 73 30 152 26 128 28 146 16 175
-25 58 -106 69 -183 24 -33 -18 -33 -18 -57 6 -30 30 -66 32 -123 5 -43 -19
-43 -19 -43 0 0 11 -3 20 -7 19 -5 0 -33 -6 -63 -12z"/>
<path d="M6436 3200 c-69 -12 -76 -16 -76 -47 0 -15 -16 -95 -35 -178 -19 -82
-35 -151 -35 -152 0 -2 28 -3 63 -3 l63 0 37 173 c20 94 40 182 43 195 4 12 2
21 -2 21 -5 -1 -31 -5 -58 -9z"/>
<path d="M6678 3201 c-90 -29 -145 -106 -154 -213 -7 -82 13 -124 76 -155 116
-59 267 6 298 130 28 108 6 189 -59 222 -37 20 -123 28 -161 16z m100 -83 c28
-28 6 -165 -34 -209 -24 -27 -80 -26 -95 3 -23 43 15 196 53 211 24 10 64 7
76 -5z"/>
<path d="M7065 3198 l-50 -9 -34 -162 c-19 -89 -36 -172 -39 -184 -4 -22 -1
-23 57 -23 33 0 61 2 61 4 0 16 52 245 59 262 11 26 57 40 77 23 8 -6 14 -27
14 -46 0 -29 -31 -184 -45 -230 -3 -10 13 -13 58 -13 l63 0 27 138 c33 165 33
184 5 217 -39 44 -87 43 -182 -3 -4 -2 -5 5 -1 17 7 23 7 24 -70 9z"/>
<path d="M3910 3194 c0 -3 -14 -66 -31 -140 -33 -143 -33 -188 0 -218 31 -28
83 -31 135 -8 38 17 46 18 46 6 0 -12 12 -14 57 -12 l57 3 37 166 c20 92 40
177 44 188 6 21 4 22 -56 19 l-63 -3 -17 -80 c-9 -44 -22 -105 -28 -136 -10
-48 -16 -59 -41 -69 -34 -14 -67 -6 -74 18 -3 10 5 65 19 122 14 58 27 115 30
128 5 21 2 22 -55 22 -33 0 -60 -3 -60 -6z"/>
<path d="M5778 3188 c-47 -12 -113 -69 -139 -120 -26 -51 -35 -126 -20 -170
25 -76 102 -107 174 -70 30 16 37 17 37 5 0 -11 13 -13 57 -11 l58 3 8 50 c4
28 21 107 37 176 17 70 30 132 30 138 0 14 -188 13 -242 -1z m109 -90 c-4 -12
-14 -58 -23 -101 -20 -91 -45 -119 -90 -99 -88 41 -19 222 84 222 31 0 34 -2
29 -22z"/>
<path d="M2548 2867 l-168 -169 126 -252 c70 -138 131 -257 136 -263 15 -19
167 -18 174 1 3 7 -13 201 -35 430 -23 230 -41 419 -41 422 0 20 -49 -23 -192
-169z"/>
<path d="M4542 2713 c-34 -4 -36 -7 -46 -56 -7 -28 -6 -28 31 -21 21 3 41 9
44 13 11 10 21 71 12 69 -4 0 -23 -3 -41 -5z"/>
<path d="M3456 2679 c-56 -14 -92 -44 -111 -94 -29 -75 -4 -130 78 -171 103
-51 130 -102 87 -157 -42 -53 -126 -59 -193 -13 l-35 24 -6 -21 c-11 -42 -6
-54 32 -70 146 -61 302 11 302 140 0 57 -28 93 -107 137 -39 21 -76 49 -83 62
-27 50 31 114 103 114 13 0 44 -10 70 -23 40 -20 46 -21 50 -8 3 9 8 23 11 32
14 33 -123 66 -198 48z"/>
<path d="M5094 2639 c-28 -8 -33 -14 -38 -54 -7 -41 -10 -45 -35 -45 -21 0
-30 -6 -35 -22 -9 -34 -8 -36 19 -30 14 2 25 0 25 -5 0 -6 -11 -60 -25 -121
-14 -61 -25 -122 -25 -136 0 -32 43 -66 84 -66 37 0 49 7 65 38 11 21 10 22
-22 22 -54 0 -59 15 -36 111 40 171 36 161 76 157 28 -2 38 1 44 17 13 33 11
35 -31 35 -22 0 -40 1 -40 3 0 1 7 26 14 55 15 57 15 57 -40 41z"/>
<path d="M3815 2536 c-84 -31 -142 -142 -133 -253 4 -44 11 -60 36 -86 27 -27
40 -32 94 -35 87 -5 139 23 181 96 38 68 49 171 23 220 -30 58 -125 85 -201
58z m99 -47 c49 -23 56 -97 19 -192 -39 -97 -145 -118 -173 -33 -22 67 27 197
83 221 40 18 40 18 71 4z"/>
<path d="M4230 2539 c-55 -17 -100 -57 -126 -113 -62 -133 1 -266 127 -266 67
0 95 13 108 51 15 43 15 44 -16 24 -70 -47 -164 0 -165 82 -1 98 58 173 135
173 23 0 53 -7 65 -16 27 -18 27 -18 36 18 5 21 2 30 -12 37 -29 16 -114 21
-152 10z"/>
<path d="M4727 2535 c-78 -27 -127 -100 -134 -200 -8 -110 51 -175 157 -175
74 0 119 16 131 47 18 47 12 55 -23 33 -23 -14 -51 -20 -90 -20 -51 0 -59 3
-82 31 -29 34 -35 84 -10 93 9 3 69 6 134 6 l117 0 6 35 c7 42 -8 100 -33 125
-19 19 -80 40 -115 40 -11 -1 -37 -7 -58 -15z m119 -60 c17 -17 24 -34 22 -53
l-3 -27 -92 -3 c-62 -2 -93 1 -93 8 0 27 34 73 63 85 47 21 75 18 103 -10z"/>
<path d="M4478 2528 c-9 -8 -23 -51 -32 -103 -10 -49 -26 -124 -37 -167 -10
-42 -19 -80 -19 -85 0 -5 18 -7 40 -5 31 3 41 9 45 26 3 11 18 86 35 166 17
80 33 153 36 163 4 13 -1 17 -23 17 -16 0 -36 -6 -45 -12z"/>
<path d="M5210 2535 c0 -3 42 -275 54 -343 2 -14 -16 -52 -50 -108 -30 -47
-54 -87 -54 -90 0 -2 17 -4 38 -4 36 0 39 3 72 63 18 34 89 155 157 269 68
114 123 210 123 213 0 3 -16 5 -36 3 -35 -3 -38 -7 -106 -128 -38 -69 -73
-129 -77 -133 -5 -5 -14 43 -20 105 -17 165 -14 158 -61 158 -22 0 -40 -2 -40
-5z"/>
<path d="M2924 2351 c-90 -55 -47 -191 59 -191 55 0 97 43 97 100 0 54 -14 79
-55 96 -45 19 -64 18 -101 -5z m117 -30 c16 -16 29 -39 29 -51 0 -35 -27 -76
-60 -90 -57 -24 -120 24 -120 91 0 32 53 79 90 79 22 0 41 -9 61 -29z"/>
<path d="M2937 2313 c-11 -10 -8 -101 3 -108 6 -4 10 5 10 19 0 34 23 33 46
-1 11 -17 19 -23 22 -15 2 7 -1 19 -8 27 -8 10 -8 18 1 33 10 16 10 23 0 36
-13 16 -62 22 -74 9z m63 -28 c0 -9 -9 -15 -25 -15 -16 0 -25 6 -25 15 0 9 9
15 25 15 16 0 25 -6 25 -15z"/>
</g>
</svg>
